<svg xmlns="http://www.w3.org/2000/svg" width="210mm" height="297mm" viewBox="0 0 210 297" role="img" aria-label="דף צביעה - דג">
  <rect width="210" height="297" fill="#ffffff"/>
  <rect x="10" y="10" width="190" height="277" rx="9" fill="none" stroke="#111111" stroke-width="1.2"/>
  <g fill="none" stroke="#111111" stroke-width="2.2" stroke-linecap="round" stroke-linejoin="round">
    <!-- body -->
    <ellipse cx="98" cy="150" rx="58" ry="42"/>
    <!-- tail -->
    <path d="M42 150 L16 120 L22 150 L16 180 Z"/>
    <!-- top fin -->
    <path d="M86 108 Q104 88 122 110"/>
    <!-- bottom fin -->
    <path d="M88 192 Q104 210 120 190"/>
    <!-- side fin -->
    <path d="M118 155 Q104 176 86 166"/>
    <!-- eye -->
    <circle cx="132" cy="138" r="8"/>
    <!-- mouth -->
    <path d="M148 156 Q156 162 150 168"/>
    <!-- gill -->
    <path d="M118 128 Q112 150 118 172"/>
    <!-- scales -->
    <path d="M70 140 Q80 150 70 160"/>
    <path d="M86 140 Q96 150 86 160"/>
    <path d="M78 122 Q88 132 78 142"/>
    <path d="M78 158 Q88 168 78 178"/>
    <!-- bubbles -->
    <circle cx="166" cy="148" r="4"/>
    <circle cx="178" cy="134" r="3"/>
    <circle cx="186" cy="122" r="2.4"/>
  </g>
  <circle cx="132" cy="138" r="2.6" fill="#111111"/>
  <text x="105" y="276" text-anchor="middle" font-family="Heebo, Arial, sans-serif" font-size="15" font-weight="700" fill="#111111">דג</text>
</svg>
